/* XPM */
static char *_556151792980[] = {
/* columns rows colors chars-per-pixel */
"16 16 66 1 ",
"  c #013220",
". c #063021",
"X c #013422",
"o c #013D27",
"O c #03412B",
"+ c #01422B",
"@ c #01432C",
"# c #01452D",
"$ c #01482F",
"% c #014C32",
"& c #014F33",
"* c #026240",
"= c #036441",
"- c #036B45",
"; c #036C46",
": c #036D47",
"> c #037048",
", c #037A4F",
"< c #037B50",
"1 c #037C51",
"2 c #037E51",
"3 c #037F52",
"4 c gray33",
"5 c #038153",
"6 c #038254",
"7 c #038356",
"8 c #038456",
"9 c #048457",
"0 c #048557",
"q c #058557",
"w c #048657",
"e c #09865A",
"r c #0D885C",
"t c #178D63",
"y c #198E64",
"u c #1C8F66",
"i c #1F9068",
"p c #2D9771",
"a c #2F9873",
"s c #329874",
"d c #3C9D7B",
"f c #47A381",
"g c #50A787",
"h c #51A888",
"j c #56AB8C",
"k c #70B79E",
"l c #71B79E",
"z c #90C5B3",
"x c #96C9B7",
"c c #B6D9CD",
"v c #B7DACE",
"b c #BADBCF",
"n c #C2DFD5",
"m c #C5E0D6",
"M c #C5E1D7",
"N c #D4E8E1",
"B c #E2EFEB",
"V c #E9F3EF",
"C c #EAF3EF",
"Z c gray95",
"A c #F0F6F4",
"S c #F6F9F8",
"D c #F6FAF8",
"F c #FDFDFD",
"G c white",
"H c None",
/* pixels */
"HHHHHHHHHHHHHHHH",
"HHHHH&1ww1%HHHHH",
"HHHX6wwwwww6.HHH",
"HH wwwwwwwwwb4HH",
"HH6wwwwwww8kGZHH",
"H$wwwwwwwwsSGbOH",
"H>wwwwwwwrNGCu=H",
"HwhMMMdwwxGGgw6H",
"H8afAGBygGGxww5H",
"H:wwjGGnCGNrww*H",
"H#ww8zGGGSawwwoH",
"HH1w8eMGGkwww,HH",
"HHHwwwiVcwww8HHH",
"HHHH1wwatww1HHHH",
"HHHHH#:ww-OHHHHH",
"HHHHHHHHHHHHHHHH"
};
