/* XPM */
static char *_556151797637[] = {
/* columns rows colors chars-per-pixel */
"32 32 118 2 ",
"   c #012D1D",
".  c #012E1E",
"X  c #01301F",
"o  c #013422",
"O  c #013623",
"+  c #013D27",
"@  c #013E29",
"#  c #013F29",
"$  c #01442C",
"%  c #01452D",
"&  c #01492F",
"*  c #02492F",
"=  c #014A30",
"-  c #014F33",
";  c #024E32",
":  c #024F33",
">  c #025034",
",  c #025437",
"<  c #025739",
"1  c #025D3C",
"2  c #22473A",
"3  c #02613F",
"4  c #036642",
"5  c #036B46",
"6  c #036D47",
"7  c #036E47",
"8  c #03714A",
"9  c #03724A",
"0  c #03734A",
"q  c #03774D",
"w  c #03784D",
"e  c #03784E",
"r  c #037A4F",
"t  c #037C50",
"y  c #037D50",
"u  c #037D51",
"i  c #037F53",
"p  c #0A7850",
"a  c #57615E",
"s  c gray40",
"d  c #038053",
"f  c #038254",
"g  c #038356",
"h  c #038456",
"j  c #048457",
"k  c #048657",
"l  c #068558",
"z  c #088659",
"x  c #098659",
"c  c #09865A",
"v  c #0A875A",
"b  c #128A60",
"n  c #158C62",
"m  c #168C62",
"M  c #178C62",
"N  c #198E64",
"B  c #1F9068",
"V  c #22926A",
"C  c #24936C",
"Z  c #27946D",
"A  c #28946E",
"S  c #29956F",
"D  c #2A956F",
"F  c #2B9670",
"G  c #2F9772",
"H  c #369B77",
"J  c #3E9E7B",
"K  c #42A07E",
"L  c #42A17F",
"P  c #44A17F",
"I  c #44A180",
"U  c #46A280",
"Y  c #4BA584",
"T  c #52A889",
"R  c #5BAD8F",
"E  c #65B195",
"W  c #68B297",
"Q  c #6AB399",
"!  c #73B89F",
"~  c #84BFAB",
"^  c #87C0AC",
"/  c #88C1AD",
"(  c #8AC2AE",
")  c #8EC6B1",
"_  c #8EC6B2",
"`  c #93C6B5",
"'  c #A6D0C0",
"]  c #A8D1C2",
"[  c #ACD2C4",
"{  c #AED3C5",
"}  c #ADD4C6",
"|  c #AFD4C6",
" . c #BBDACF",
".. c gray86",
"X. c #C6E0D7",
"o. c #C7E1D7",
"O. c #C9E2D9",
"+. c #CAE3DA",
"@. c #CBE3DA",
"#. c #CBE3DB",
"$. c #CEE4DC",
"%. c #E1EEEA",
"&. c #E2EFEA",
"*. c #E3EFEB",
"=. c #E8F2EE",
"-. c #EBF4F0",
";. c #EDF4F2",
":. c #F1F6F5",
">. c #F2F7F5",
",. c #F2F7F6",
"<. c #F3F7F6",
"1. c #F4F8F6",
"2. c #F9FBFA",
"3. c #FBFCFC",
"4. c gray99",
"5. c #FDFDFD",
"6. c white",
"7. c None",
/* pixels */
"7.7.7.7.7.7.7.7.7.7.7.7.7.7.7.7.7.7.7.7.7.7.7.7.7.7.7.7.7.7.7.7.",
"7.7.7.7.7.7.7.7.7.7.7.7.7.7.7.7.7.7.7.7.7.7.7.7.7.7.7.7.7.7.7.7.",
"7.7.7.7.7.7.7.7.7.7.7.% 5 k k k k k k 4 # 7.7.7.7.7.7.7.7.7.7.7.",
"7.7.7.7.7.7.7.7.7.< k k k k k k k k k k k h - 7.7.7.7.7.7.7.7.7.",
"7.7.7.7.7.7.7.X d k k k k k k k k k k k k k k t 7.7.7.7.7.7.7.7.",
"7.7.7.7.7.7.& k k k k k k k k k k k k k k k k k k 2 7.7.7.7.7.7.",
"7.7.7.7.7.% k k k k k k k k k k k k k k k k k k A >.s 7.7.7.7.7.",
"7.7.7.7.7.k k k k k k k k k k k k k k k k k k x +.6.6.7.7.7.7.7.",
"7.7.7.7.t k k k k k k k k k k k k k k k k k k ^ 6.6.6...7.7.7.7.",
"7.7.7.= k k k k k k k k k k k k k k k k k k L 3.6.6.6.6.a 7.7.7.",
"7.7.7.f k k k k k k k k k k k k k k k k k M *.6.6.6.6.$.p 7.7.7.",
"7.7.o k k k k k k k k k k k k k k k k k f [ 6.6.6.6.1.F k 7.7.7.",
"7.7., k k k k k k k k k k k k k k k k k E 6.6.6.6.6.W k k & 7.7.",
"7.7.e k k k k k k k k k k k k k k k k F >.6.6.6.6.| k k k 3 7.7.",
"7.7.k k k H _ _ _ _ _ _ B k k k k h l #.6.6.6.6.*.M k k k y 7.7.",
"7.7.k k C =.6.6.6.6.6.6.X.x k k k l ( 6.6.6.6.4.I k k k k k 7.7.",
"7.7.k k U Q Q ' 6.6.6.6.6.` l h k I 3.6.6.6.6.( l k k k k h 7.7.",
"7.7.k k k k k v +.6.6.6.6.6.R l n *.6.6.6.6.+.x k k k k k e 7.7.",
"7.7.9 l k k k k V =.6.6.6.6.>.G { 6.6.6.6.>.F k k k k k k 1 7.7.",
"7.7.> k k k k k l Y 2.6.6.6.6.-.6.6.6.6.6.E h k k k k k k % 7.7.",
"7.7.7.l k k k k h k ^ 6.6.6.6.6.6.6.6.6.[ f k k k k k k k 7.7.7.",
"7.7.7.r k k k k k k l  .6.6.6.6.6.6.6.*.n k k k k k k k 7 7.7.7.",
"7.7.7.+ k k k k k k h N *.6.6.6.6.6.3.L k k k k k k k k . 7.7.7.",
"7.7.7.7.0 k k k k k k k J 3.6.6.6.6.^ k k k k k k k k 4 7.7.7.7.",
"7.7.7.7.7.h k k k k k k k ! 6.6.6.X.x k k k k k k k t 7.7.7.7.7.",
"7.7.7.7.7.. k k k k k k k k { 6.>.Z h k k k k k k h 7.7.7.7.7.7.",
"7.7.7.7.7.7.. h k k k k k k b ' T k k k k k k k d 7.7.7.7.7.7.7.",
"7.7.7.7.7.7.7.7.9 k k k k k k k k k k k k k k 7 7.7.7.7.7.7.7.7.",
"7.7.7.7.7.7.7.7.7.# t k k k k k k k k k l e o 7.7.7.7.7.7.7.7.7.",
"7.7.7.7.7.7.7.7.7.7.7.7.> 9 k k k k 7 - 7.7.7.7.7.7.7.7.7.7.7.7.",
"7.7.7.7.7.7.7.7.7.7.7.7.7.7.7.7.7.7.7.7.7.7.7.7.7.7.7.7.7.7.7.7.",
"7.7.7.7.7.7.7.7.7.7.7.7.7.7.7.7.7.7.7.7.7.7.7.7.7.7.7.7.7.7.7.7."
};
