/* XPM */
static char *_556151800311[] = {
/* columns rows colors chars-per-pixel */
"64 64 217 2 ",
"   c #01281A",
".  c #012A1B",
"X  c #012B1C",
"o  c #012D1D",
"O  c #012E1D",
"+  c #01301F",
"@  c #013321",
"#  c #013421",
"$  c #013623",
"%  c #013824",
"&  c #013A25",
"*  c #013B26",
"=  c #013C26",
"-  c #013E28",
";  c #013F29",
":  c #014029",
">  c #01412B",
",  c #01422B",
"<  c #02432B",
"1  c #01442C",
"2  c #01452D",
"3  c #02442C",
"4  c #01462D",
"5  c #01472D",
"6  c #01472E",
"7  c #01472F",
"8  c #01482F",
"9  c #02492F",
"0  c #014A2F",
"q  c #014B31",
"w  c #014C31",
"e  c #014D32",
"r  c #024F33",
"t  c #015034",
"y  c #025134",
"u  c #025235",
"i  c #025436",
"p  c #025838",
"a  c #025839",
"s  c #025939",
"d  c #02593A",
"f  c #025B3A",
"g  c #035B3A",
"h  c #025B3B",
"j  c #035B3B",
"k  c #025C3B",
"l  c #02623F",
"z  c #036240",
"x  c #036440",
"c  c #036542",
"v  c #036742",
"b  c #036843",
"n  c #036944",
"m  c #036945",
"M  c #036A45",
"N  c #036B45",
"B  c #036D46",
"V  c #036F48",
"C  c #037048",
"Z  c #037149",
"A  c #03724A",
"S  c #03734B",
"D  c #03754C",
"F  c #03784D",
"G  c #03794E",
"H  c #037A4E",
"J  c #037A4F",
"K  c #037C50",
"L  c #037D50",
"P  c #037C51",
"I  c #037D51",
"U  c #037F53",
"Y  c #656565",
"T  c #038053",
"R  c #038054",
"E  c #038154",
"W  c #038254",
"Q  c #038354",
"!  c #038456",
"~  c #048456",
"^  c #048457",
"/  c #058457",
"(  c #058557",
")  c #048657",
"_  c #078558",
"`  c #088659",
"'  c #0A875A",
"]  c #0B875A",
"[  c #0B875B",
"{  c #0C875B",
"}  c #0D875C",
"|  c #0C885B",
" . c #0D885C",
".. c #0E885D",
"X. c #0F895D",
"o. c #10895E",
"O. c #168C62",
"+. c #188D63",
"@. c #1A8D63",
"#. c #1A8D64",
"$. c #1B8D64",
"%. c #1B8E64",
"&. c #1A8E65",
"*. c #1B8E65",
"=. c #1C8E65",
"-. c #1D8F66",
";. c #1E8F66",
":. c #1F8F66",
">. c #1F8F67",
",. c #239169",
"<. c #2A946E",
"1. c #2B956F",
"2. c #2C956F",
"3. c #2D9670",
"4. c #2E9670",
"5. c #2E9671",
"6. c #2F9771",
"7. c #309771",
"8. c #309772",
"9. c #319872",
"0. c #329873",
"q. c #359975",
"w. c #399B78",
"e. c #3F9E7B",
"r. c #3F9E7C",
"t. c #489E7F",
"y. c #45A180",
"u. c #47A281",
"i. c #4BA484",
"p. c #4CA484",
"a. c #4DA585",
"s. c #4EA585",
"d. c #4FA586",
"f. c #51A687",
"g. c #54A88A",
"h. c #55A98A",
"j. c #5CAB8E",
"k. c #6BB399",
"l. c #6DB399",
"z. c #6EB49B",
"x. c #6FB49B",
"c. c #71B59C",
"v. c #72B59C",
"b. c #72B59D",
"n. c #75B79F",
"m. c #76B9A1",
"M. c #7EBCA6",
"N. c #828584",
"B. c #868686",
"V. c gray60",
"C. c #85BFAB",
"Z. c gray73",
"A. c #88C0AC",
"S. c #8BC2AE",
"D. c #8EC3B0",
"F. c #91C4B2",
"G. c #91C4B3",
"H. c #93C5B4",
"J. c #94C6B4",
"K. c #95C6B5",
"L. c #96C7B5",
"P. c #97C7B6",
"I. c #9AC9B8",
"U. c #A7CFC0",
"Y. c #A8CFC1",
"T. c #A7D0C1",
"R. c #B2D4C8",
"E. c #B5D6CA",
"W. c #B6D6CA",
"Q. c #B6D7CA",
"!. c #B8D7CB",
"~. c #B9D7CC",
"^. c #BBD9CE",
"/. c #BDD9CF",
"(. c #BDDACF",
"). c #BEDAD0",
"_. c #BFDCD2",
"`. c #C1DDD3",
"'. c #C3DED4",
"]. c #CAE1D9",
"[. c #CDE2DB",
"{. c #D1E3DC",
"}. c #D0E4DD",
"|. c #D1E5DE",
" X c #D2E4DE",
".X c #D2E5DF",
"XX c #D3E6DF",
"oX c #D4E6E0",
"OX c #D5E7E1",
"+X c #D7E8E2",
"@X c #DCE9E5",
"#X c #DFECE7",
"$X c gray88",
"%X c #E4EFEB",
"&X c #E5F0EC",
"*X c #E7F1ED",
"=X c #E8F1EE",
"-X c #E9F2EE",
";X c #E9F2EF",
":X c #EAF3F0",
">X c #ECF3F1",
",X c #ECF4F1",
"<X c #F0F6F4",
"1X c #F2F6F5",
"2X c #F2F7F5",
"3X c #F5F8F7",
"4X c #F6F9F8",
"5X c #F7F9F8",
"6X c #F7FAF9",
"7X c #F8FAF9",
"8X c #F9FAFA",
"9X c #FBFBFB",
"0X c gray99",
"qX c #FCFDFD",
"wX c #FDFDFD",
"eX c white",
"rX c None",
/* pixels */
"rXrXrXrXrXrXrXrXrXrXrXrXrXrXrXrXrXrXrXrXrXrXrXrXrXrXrXrXrXrXrXrXrXrXrXrXrXrXrXrXrXrXrXrXrXrXrXrXrXrXrXrXrXrXrXrXrXrXrXrXrXrXrXrX",
"rXrXrXrXrXrXrXrXrXrXrXrXrXrXrXrXrXrXrXrXrXrXrXrXrXrXrXrXrXrXrXrXrXrXrXrXrXrXrXrXrXrXrXrXrXrXrXrXrXrXrXrXrXrXrXrXrXrXrXrXrXrXrXrX",
"rXrXrXrXrXrXrXrXrXrXrXrXrXrXrXrXrXrXrXrXrXrXrXrXrXrXrXrXrXrXrXrXrXrXrXrXrXrXrXrXrXrXrXrXrXrXrXrXrXrXrXrXrXrXrXrXrXrXrXrXrXrXrXrX",
"rXrXrXrXrXrXrXrXrXrXrXrXrXrXrXrXrXrXrXrXrXrXrXrXrXrXrXrX% : 0 0 q 1 1 + rXrXrXrXrXrXrXrXrXrXrXrXrXrXrXrXrXrXrXrXrXrXrXrXrXrXrXrX",
"rXrXrXrXrXrXrXrXrXrXrXrXrXrXrXrXrXrXrXrXrXrXrXrXe S ) ) ) ) ) ) ) ) ) ) ) ) n 0 rXrXrXrXrXrXrXrXrXrXrXrXrXrXrXrXrXrXrXrXrXrXrXrX",
"rXrXrXrXrXrXrXrXrXrXrXrXrXrXrXrXrXrXrXrXrXe T ) ) ) ) ) ) ) ) ) ) ) ) ) ) ) ) ) ) D : rXrXrXrXrXrXrXrXrXrXrXrXrXrXrXrXrXrXrXrXrX",
"rXrXrXrXrXrXrXrXrXrXrXrXrXrXrXrXrXrXrXk ) ) ) ) ) ) ) ) ) ) ) ) ) ) ) ) ) ) ) ) ) ) ) R e rXrXrXrXrXrXrXrXrXrXrXrXrXrXrXrXrXrXrX",
"rXrXrXrXrXrXrXrXrXrXrXrXrXrXrXrXrXy ) ) ) ) ) ) ) ) ) ) ) ) ) ) ) ) ) ) ) ) ) ) ) ) ) ) ) R % rXrXrXrXrXrXrXrXrXrXrXrXrXrXrXrXrX",
"rXrXrXrXrXrXrXrXrXrXrXrXrXrXrXrXJ ! ) ) ) ) ) ) ) ) ) ) ) ) ) ) ) ) ) ) ) ) ) ) ) ) ) ) ) ) ) n rXrXrXrXrXrXrXrXrXrXrXrXrXrXrXrX",
"rXrXrXrXrXrXrXrXrXrXrXrXrXrX1 ) ) ) ) ) ) ) ) ) ) ) ) ) ) ) ) ) ) ) ) ) ) ) ) ) ) ) ) ) ) ) ) ) T . rXrXrXrXrXrXrXrXrXrXrXrXrXrX",
"rXrXrXrXrXrXrXrXrXrXrXrXrXf ) ) ) ) ) ) ) ) ) ) ) ) ) ) ) ) ) ) ) ) ) ) ) ) ) ) ) ) ) ) ) ) ) ) ) ) - rXrXrXrXrXrXrXrXrXrXrXrXrX",
"rXrXrXrXrXrXrXrXrXrXrXrXx ) ) ) ) ) ) ) ) ) ) ) ) ) ) ) ) ) ) ) ) ) ) ) ) ) ) ) ) ) ) ) ) ) ) ) ) ) 5.N.rXrXrXrXrXrXrXrXrXrXrXrX",
"rXrXrXrXrXrXrXrXrXrXrXl ) ) ) ) ) ) ) ) ) ) ) ) ) ) ) ) ) ) ) ) ) ) ) ) ) ) ) ) ) ) ) ) ) ) ) ) ) [ }.eXB.rXrXrXrXrXrXrXrXrXrXrX",
"rXrXrXrXrXrXrXrXrXrXi ) ) ) ) ) ) ) ) ) ) ) ) ) ) ) ) ) ) ) ) ) ) ) ) ) ) ) ) ) ) ) ) ) ) ) ) ) ) G.eXeXeXY rXrXrXrXrXrXrXrXrXrX",
"rXrXrXrXrXrXrXrXrX$ ) ) ) ) ) ) ) ) ) ) ) ) ) ) ) ) ) ) ) ) ) ) ) ) ) ) ) ) ) ) ) ) ) ) ) ) ) ) i.eXeXeXeXeXrXrXrXrXrXrXrXrXrXrX",
"rXrXrXrXrXrXrXrXrXQ ) ) ) ) ) ) ) ) ) ) ) ) ) ) ) ) ) ) ) ) ) ) ) ) ) ) ) ) ) ) ) ) ) ) ) ) ) @.&XeXeXeXeXeX$XrXrXrXrXrXrXrXrXrX",
"rXrXrXrXrXrXrXrXN ) ) ) ) ) ) ) ) ) ) ) ) ) ) ) ) ) ) ) ) ) ) ) ) ) ) ) ) ) ) ) ) ) ) ) ) ) ) E.eXeXeXeXeXeXeXV.rXrXrXrXrXrXrXrX",
"rXrXrXrXrXrXrX% ) ) ) ) ) ) ) ) ) ) ) ) ) ) ) ) ) ) ) ) ) ) ) ) ) ) ) ) ) ) ) ) ) ) ) ) ) ) z.eXeXeXeXeXeXeXeXeXrXrXrXrXrXrXrXrX",
"rXrXrXrXrXrXrXP ) ) ) ) ) ) ) ) ) ) ) ) ) ) ) ) ) ) ) ) ) ) ) ) ) ) ) ) ) ) ) ) ) ) ) ) ) 5.3XeXeXeXeXeXeXeXeXeXZ.rXrXrXrXrXrXrX",
"rXrXrXrXrXrX: ) ) ) ) ) ) ) ) ) ) ) ) ) ) ) ) ) ) ) ) ) ) ) ) ) ) ) ) ) ) ) ) ) ) ) ) ) { }.eXeXeXeXeXeXeXeXeXeX).rXrXrXrXrXrXrX",
"rXrXrXrXrXrXJ ) ) ) ) ) ) ) ) ) ) ) ) ) ) ) ) ) ) ) ) ) ) ) ) ) ) ) ) ) ) ) ) ) ) ) ) ) G.eXeXeXeXeXeXeXeXeXeX:X>.f rXrXrXrXrXrX",
"rXrXrXrXrXrX) ) ) ) ) ) ) ) ) ) ) ) ) ) ) ) ) ) ) ) ) ) ) ) ) ) ) ) ) ) ) ) ) ) ) ) ) p.eXeXeXeXeXeXeXeXeXeXeXg.) ) rXrXrXrXrXrX",
"rXrXrXrXrXf ) ) ) ) ) ) ) ) ) ) ) ) ) ) ) ) ) ) ) ) ) ) ) ) ) ) ) ) ) ) ) ) ) ) ) ) $.=XeXeXeXeXeXeXeXeXeXeXI.) ) ) - rXrXrXrXrX",
"rXrXrXrXrX! ) ) ) ) ) ) ) ) ) ) ) ) ) ) ) ) ) ) ) ) ) ) ) ) ) ) ) ) ) ) ) ) ) ) ) ) E.eXeXeXeXeXeXeXeXeXeXOX..) ) ) N rXrXrXrXrX",
"rXrXrXrXrX) ) ) ) ) ) ) ) ) ) ) ) ) ) ) ) ) ) ) ) ) ) ) ) ) ) ) ) ) ) ) ) ) ) ) ) x.eXeXeXeXeXeXeXeXeXeX6Xq.) ) ) ) ! rXrXrXrXrX",
"rXrXrXrXq ) ) ) ) ) ) ) ) ) ) ) ) ) ) ) ) ) ) ) ) ) ) ) ) ) ) ) ) ) ) ) ) ) ) ) 8.6XeXeXeXeXeXeXeXeXeXeXn.) ) ) ) ) _ . rXrXrXrX",
"rXrXrXrXl ! ) ) ) ) ) ) ) ) ) ) ) ) ) ) ) ) ) ) ) ) ) ) ) ) ) ) ) ) ) ) ) ) ) { }.eXeXeXeXeXeXeXeXeXeX^.) ) ) ) ) ) ) 1 rXrXrXrX",
"rXrXrXrX! ) ) ) ) ) ) ) ) ) ) ) ) ) ) ) ) ) ) ) ) ) ) ) ) ) ) ) ) ) ) ) ) ) ! P.eXeXeXeXeXeXeXeXeXeX;X-.) ) ) ) ) ) ) f rXrXrXrX",
"rXrXrXrX_ ! ) ) ) ) ) | >.>.>.>.>.>.>.>.>.>.>.>.) ) ) ) ) ) ) ) ) ) ) ) ) ) p.eXeXeXeXeXeXeXeXeXeXeXf.! ) ) ) ) ) ) ! B rXrXrXrX",
"rXrXrXrX) ) ) ) ) ) [ `.eXeXeXeXeXeXeXeXeXeXeXeXv.) ) ) ) ) ) ) ) ) ) ) ) $.=XeXeXeXeXeXeXeXeXeXeXP.) ! ) ) ) ) ) ) ) ! rXrXrXrX",
"rXrXrXrX) ) ) ) ) ) Y.eXeXeXeXeXeXeXeXeXeXeXeXeX8Xt.! ) ) ) ) ) ) ) ) ) ) !.eXeXeXeXeXeXeXeXeXeX}...) ) ) ) ) ) ) ) ) ) rXrXrXrX",
"rXrXrXrX) ) ) ) ) A.eXeXeXeXeXeXeXeXeXeXeXeXeXeXeX%XO.) ) ) ) ) ) ) ) ) v.eXeXeXeXeXeXeXeXeXeX6Xq.) ) ) ) ) ) ) ) ) ) _ rXrXrXrX",
"rXrXrXrX) ) ) ) t.{.}.XX}.}.@XeXeXeXeXeXeXeXeXeXeXeX).[ ) ) ) ) ) ) ) 8.8XeXeXeXeXeXeXeXeXeXeXc.! ) ) ) ) ) ) ) ) ) ) ) rXrXrXrX",
"rXrXrXrX) ) ) ) ) ) ) ) ) ! [ '.eXeXeXeXeXeXeXeXeXeXeXA.) ) ) ) ) ) } }.eXeXeXeXeXeXeXeXeXeX^.) ) ) ) ) ) ) ) ) ) ) ) ) rXrXrXrX",
"rXrXrXrX) ) ) ) ) ) ) ) ) ) ) -.=XeXeXeXeXeXeXeXeXeXeXeXg.) ) ) ) ) P.eXeXeXeXeXeXeXeXeXeX=X>.) ) ) ) ) ) ) ) ) ) ) ) P rXrXrXrX",
"rXrXrXrX) ) ) ) ) ) ) ) ) ) ) ) u.8XeXeXeXeXeXeXeXeXeXeX<X2.) ) ) p.eXeXeXeXeXeXeXeXeXeXeXp.! ! ) ) ) ) ) ) ) ) ) ) ) x rXrXrXrX",
"rXrXrXrXJ ! ! ) ) ) ) ) ) ) ) ) ) M.eXeXeXeXeXeXeXeXeXeXeX}.o.) >.=XeXeXeXeXeXeXeXeXeXeXP.) ) ) ) ) ) ) ) ) ) ) ) ) ! i rXrXrXrX",
"rXrXrXrXf _ ) ) ) ) ) ) ) ) ) ) ) ) E.eXeXeXeXeXeXeXeXeXeXeXT.) !.eXeXeXeXeXeXeXeXeXeX}.[ ) ) ) ) ) ) ) ) ) ) ) ) ) ) : rXrXrXrX",
"rXrXrXrX: _ ) ) ) ) ) ) ) ) ) ) ) ) O.%XeXeXeXeXeXeXeXeXeXeXeX/.eXeXeXeXeXeXeXeXeXeX6X8.! ) ) ) ) ) ) ) ) ) ) ) ) ) _ rXrXrXrXrX",
"rXrXrXrXrX) ) ) ) ) ) ) ) ) ) ) ) ) ) q.6XeXeXeXeXeXeXeXeXeXeXeXeXeXeXeXeXeXeXeXeXeXx.) ) ) ) ) ) ) ) ) ) ) ) ) ) ) Q rXrXrXrXrX",
"rXrXrXrXrXJ ) ) ) ) ) ) ) ) ) ) ) ) ) ) z.eXeXeXeXeXeXeXeXeXeXeXeXeXeXeXeXeXeXeXeXE.Q ) ) ) ) ) ) ) ) ) ) ) ) ) ) ) f rXrXrXrXrX",
"rXrXrXrXrXe ) ) ) ) ) ) ) ) ) ) ) ) ) ) R T.eXeXeXeXeXeXeXeXeXeXeXeXeXeXeXeXeXeX&X@.) ) ) ) ) ) ) ) ) ) ) ) ) ) ) ) O rXrXrXrXrX",
"rXrXrXrXrXrX) ) ) ) ) ) ) ) ) ) ) ) ) ) ) o.OXeXeXeXeXeXeXeXeXeXeXeXeXeXeXeXeXeXi.) ) ) ) ) ) ) ) ) ) ) ) ) ) ) ) P rXrXrXrXrXrX",
"rXrXrXrXrXrXn ) ) ) ) ) ) ) ) ) ) ) ) ) ) ) 5.<XeXeXeXeXeXeXeXeXeXeXeXeXeXeXeXG.) ) ) ) ) ) ) ) ) ) ) ) ) ) ) ) ) 0 rXrXrXrXrXrX",
"rXrXrXrXrXrXrX) ) ) ) ) ) ) ) ) ) ) ) ) ) ) ) j.9XeXeXeXeXeXeXeXeXeXeXeXeXeX}.[ ) ) ) ) ) ) ) ) ) ) ) ) ) ) ) ) Q rXrXrXrXrXrXrX",
"rXrXrXrXrXrXrXn ) ) ) ) ) ) ) ) ) ) ) ) ) ) ) ) P.eXeXeXeXeXeXeXeXeXeXeXeX3X5.) ) ) ) ) ) ) ) ) ) ) ) ) ) ) ) ) 1 rXrXrXrXrXrXrX",
"rXrXrXrXrXrXrXrX) ) ) ) ) ) ) ) ) ) ) ) ) ) ) ) ' [.eXeXeXeXeXeXeXeXeXeXeXk.) ) ) ) ) ) ) ) ) ) ) ) ) ) ) ) _ K rXrXrXrXrXrXrXrX",
"rXrXrXrXrXrXrXrXe ) ) ) ) ) ) ) ) ) ) ) ) ) ) ) ! ,.,XeXeXeXeXeXeXeXeXeXR.Q ) ) ) ) ) ) ) ) ) ) ) ) ) ) ) ) ! O rXrXrXrXrXrXrXrX",
"rXrXrXrXrXrXrXrXrXC ) ) ) ) ) ) ) ) ) ) ) ) ) ) ) ) p.eXeXeXeXeXeXeXeX&X+.) ) ) ) ) ) ) ) ) ) ) ) ) ) ) ) ) f rXrXrXrXrXrXrXrXrX",
"rXrXrXrXrXrXrXrXrXrXE ) ) ) ) ) ) ) ) ) ) ) ) ) ) ) ! C.eXeXeXeXeXeX9Xu.) ) ) ) ) ) ) ) ) ) ) ) ) ) ) ) ) C rXrXrXrXrXrXrXrXrXrX",
"rXrXrXrXrXrXrXrXrXrX. R ) ) ) ) ) ) ) ) ) ) ) ) ) ) ) ) ^.eXeXeXeXeXD.) ) ) ) ) ) ) ) ) ) ) ) ) ) ) ) ) P rXrXrXrXrXrXrXrXrXrXrX",
"rXrXrXrXrXrXrXrXrXrXrX$ ) ) ) ) ) ) ) ) ) ) ) ) ) ) ) ) $.&XeXeXeX[.' ) ) ) ) ) ) ) ) ) ) ) ) ) ) ) ! Q rXrXrXrXrXrXrXrXrXrXrXrX",
"rXrXrXrXrXrXrXrXrXrXrXrX$ ) ) ) ) ) ) ) ) ) ) ) ) ) ) ) ) t.6XeX<X3.! ) ) ) ) ) ) ) ) ) ) ) ) ) ) ) P rXrXrXrXrXrXrXrXrXrXrXrXrX",
"rXrXrXrXrXrXrXrXrXrXrXrXrX. E ) ) ) ) ) ) ) ) ) ) ) ) ) ! ! 6.m.3.! ) ) ) ) ) ) ) ) ) ) ) ) ) ) ) D rXrXrXrXrXrXrXrXrXrXrXrXrXrX",
"rXrXrXrXrXrXrXrXrXrXrXrXrXrXrXA ) ) ) ) ) ) ) ) ) ) ) ) ) ) ) ) ) ) ) ) ) ) ) ) ) ) ) ) ) ) ) ) z rXrXrXrXrXrXrXrXrXrXrXrXrXrXrX",
"rXrXrXrXrXrXrXrXrXrXrXrXrXrXrXrXy ) ) ) ) ) ) ) ) ) ) ) ) ) ) ) ) ) ) ) ) ) ) ) ) ) ) ) ) _ Q % rXrXrXrXrXrXrXrXrXrXrXrXrXrXrXrX",
"rXrXrXrXrXrXrXrXrXrXrXrXrXrXrXrXrXrXN _ ! ) ) ) ) ) ) ) ) ) ) ) ) ) ) ) ) ) ) ) ) ) ) ) ) j rXrXrXrXrXrXrXrXrXrXrXrXrXrXrXrXrXrX",
"rXrXrXrXrXrXrXrXrXrXrXrXrXrXrXrXrXrXrX. B ) ) ) ) ) ) ) ) ) ) ) ) ) ) ) ) ) ) ) ) ) ) k rXrXrXrXrXrXrXrXrXrXrXrXrXrXrXrXrXrXrXrX",
"rXrXrXrXrXrXrXrXrXrXrXrXrXrXrXrXrXrXrXrXrXrXt P ) ) ! ! ) ) ) ) ) ) ) ) ! _ ) ) C 1 rXrXrXrXrXrXrXrXrXrXrXrXrXrXrXrXrXrXrXrXrXrX",
"rXrXrXrXrXrXrXrXrXrXrXrXrXrXrXrXrXrXrXrXrXrXrXrXrX1 f J ) ) ) _ ) ) ) ) C i = rXrXrXrXrXrXrXrXrXrXrXrXrXrXrXrXrXrXrXrXrXrXrXrXrX",
"rXrXrXrXrXrXrXrXrXrXrXrXrXrXrXrXrXrXrXrXrXrXrXrXrXrXrXrXrXrXrXrXrXrXrXrXrXrXrXrXrXrXrXrXrXrXrXrXrXrXrXrXrXrXrXrXrXrXrXrXrXrXrXrX",
"rXrXrXrXrXrXrXrXrXrXrXrXrXrXrXrXrXrXrXrXrXrXrXrXrXrXrXrXrXrXrXrXrXrXrXrXrXrXrXrXrXrXrXrXrXrXrXrXrXrXrXrXrXrXrXrXrXrXrXrXrXrXrXrX",
"rXrXrXrXrXrXrXrXrXrXrXrXrXrXrXrXrXrXrXrXrXrXrXrXrXrXrXrXrXrXrXrXrXrXrXrXrXrXrXrXrXrXrXrXrXrXrXrXrXrXrXrXrXrXrXrXrXrXrXrXrXrXrXrX",
"rXrXrXrXrXrXrXrXrXrXrXrXrXrXrXrXrXrXrXrXrXrXrXrXrXrXrXrXrXrXrXrXrXrXrXrXrXrXrXrXrXrXrXrXrXrXrXrXrXrXrXrXrXrXrXrXrXrXrXrXrXrXrXrX"
};
