<svg width="401.00000000000006" height="402" xmlns="http://www.w3.org/2000/svg">

 <g>
  <title>background</title>
  <rect fill="none" id="canvas_background" height="404" width="403" y="-1" x="-1"/>
 </g>
 <g>
  <title>Layer 1</title>
  <g id="svgg">
   <path fill-rule="evenodd" fill="#ffffff" d="m334.105,62.4c-2.077,2.97 -5.155,7.275 -6.84,9.566c-1.686,2.291 -3.065,4.541 -3.065,5c0,0.459 -0.371,0.834 -0.825,0.834c-0.454,0 -1.066,0.63 -1.36,1.4c-0.294,0.77 -0.839,1.76 -1.212,2.2c-0.373,0.44 -2.444,3.32 -4.603,6.4c-2.159,3.08 -4.212,5.96 -4.563,6.4c-0.35,0.44 -2.077,2.954 -3.837,5.586c-1.76,2.633 -3.473,5.153 -3.808,5.6c-0.83,1.112 -7.909,11.081 -9.392,13.226c-0.66,0.955 -2.656,3.773 -4.436,6.262c-1.78,2.489 -4.059,5.876 -5.065,7.526c-1.006,1.65 -2.16,3 -2.564,3c-0.404,0 -0.735,0.375 -0.735,0.834c0,0.458 -1.101,2.348 -2.447,4.2c-7.889,10.855 -11.953,16.639 -11.953,17.011c0,0.232 -0.377,0.857 -0.837,1.389c-0.78,0.9 -7.488,10.296 -9.755,13.664c-0.554,0.824 -1.368,1.914 -1.808,2.422c-1.51,1.743 -4.4,6.015 -4.4,6.505c0,0.269 -0.45,0.991 -1,1.604c-1.835,2.047 -2.637,3.149 -4.491,6.171c-1.012,1.65 -2.17,3 -2.574,3c-0.404,0 -0.735,0.485 -0.735,1.078c0,0.592 -0.63,1.819 -1.4,2.725c-1.633,1.922 -1.562,1.822 -9.769,13.797c-3.468,5.06 -6.613,9.56 -6.988,10c-0.376,0.44 -3.174,4.4 -6.219,8.8c-3.044,4.4 -5.825,8.12 -6.179,8.267c-0.355,0.146 -0.645,0.746 -0.645,1.333c0,0.587 -0.27,1.187 -0.6,1.333c-0.33,0.147 -2.196,2.607 -4.147,5.467c-3.148,4.614 -5.565,7.9 -8.065,10.966c-0.433,0.532 -0.788,1.176 -0.788,1.433c0,0.452 -3.177,5.196 -4.018,6.001c-0.231,0.22 -3.446,4.9 -7.147,10.4c-6.484,9.638 -8.671,12.846 -20.298,29.767c-6.567,9.556 -6.56,9.631 1.76,19.033c1.363,1.54 2.483,3.014 2.49,3.276c0.007,0.261 0.92,1.521 2.028,2.8c1.108,1.278 2.998,3.764 4.2,5.524c1.202,1.76 2.66,3.701 3.24,4.312c0.58,0.612 1.658,2.052 2.394,3.2c1.632,2.546 1.946,2.958 4.952,6.488c1.311,1.54 2.571,3.366 2.8,4.058c0.881,2.66 6.62,4.955 11.4,4.559c4.112,-0.341 11.348,-5.864 11.392,-8.695c0.004,-0.262 0.72,-1.342 1.592,-2.4c1.903,-2.307 2.56,-3.198 3.615,-4.9c1.484,-2.395 6.614,-9.787 10.52,-15.16c2.134,-2.936 4.338,-5.996 4.898,-6.8c0.56,-0.804 3.162,-4.522 5.782,-8.262c2.62,-3.74 5.222,-7.471 5.782,-8.292c2.622,-3.842 6.608,-8.934 7.181,-9.175c0.351,-0.146 0.637,-0.63 0.637,-1.073c0,-0.444 0.63,-1.633 1.4,-2.641c0.77,-1.009 1.854,-2.505 2.408,-3.326c0.555,-0.821 2.801,-4.013 4.992,-7.093c2.191,-3.08 4.437,-6.274 4.992,-7.098c0.554,-0.824 1.368,-1.919 1.808,-2.434c0.44,-0.514 1.16,-1.495 1.6,-2.18c4.339,-6.747 10.376,-15.088 10.92,-15.088c0.374,0 0.68,-0.375 0.68,-0.834c0,-0.458 1.101,-2.348 2.447,-4.2c7.685,-10.575 11.953,-16.633 11.953,-16.968c0,-0.209 0.53,-1.014 1.177,-1.789c0.971,-1.163 8.507,-11.679 11.616,-16.209c0.453,-0.66 2.616,-3.72 4.807,-6.8c2.191,-3.08 4.437,-6.257 4.992,-7.06c0.554,-0.803 1.469,-2.063 2.032,-2.8c0.564,-0.737 2.797,-3.86 4.963,-6.94c2.166,-3.08 4.315,-6.035 4.776,-6.566c0.46,-0.532 0.837,-1.183 0.837,-1.448c0,-0.265 1.17,-2.039 2.6,-3.942c1.43,-1.903 3.14,-4.27 3.8,-5.259c1.672,-2.504 9.695,-13.738 16.6,-23.241c3.19,-4.391 5.8,-8.334 5.8,-8.763c0,-0.43 0.27,-0.791 0.6,-0.803c0.33,-0.011 1.482,-1.451 2.561,-3.2c1.078,-1.748 2.248,-3.178 2.6,-3.178c0.351,0 0.639,-0.375 0.639,-0.832c0,-0.766 2.495,-4.649 4.4,-6.848c0.44,-0.508 1.257,-1.598 1.815,-2.422c0.559,-0.824 2.269,-3.271 3.8,-5.439c1.532,-2.167 2.785,-4.468 2.785,-5.112c0,-1.116 -3.137,-8.104 -4.016,-8.947c-0.229,-0.22 -0.857,-1.3 -1.394,-2.4c-1.239,-2.532 -2.709,-4.826 -3.99,-6.223c-0.55,-0.6 -1,-1.567 -1,-2.149c0,-0.581 -0.54,-1.264 -1.2,-1.517c-0.66,-0.254 -1.2,-1.012 -1.2,-1.686c0,-0.674 -0.336,-1.225 -0.746,-1.225c-0.41,0 -0.954,-0.63 -1.208,-1.4c-0.254,-0.77 -1.534,-2.66 -2.845,-4.2c-1.311,-1.54 -2.663,-3.16 -3.004,-3.6c-6.064,-7.819 -18.405,-21.2 -19.553,-21.2c-0.31,0 -2.262,2.43 -4.339,5.4m-269.572,124.4c1.142,1.43 2.614,3.17 3.271,3.867c0.658,0.697 1.196,1.687 1.196,2.2c0,0.513 0.27,0.935 0.6,0.938c0.33,0.003 1.497,1.353 2.593,3c1.096,1.647 2.222,3.175 2.503,3.395c1.126,0.883 6.304,8.062 6.304,8.74c0,0.4 0.311,0.847 0.691,0.993c0.379,0.147 6.203,7.647 12.942,16.667c6.738,9.02 13.177,17.513 14.309,18.874c1.132,1.36 2.598,3.294 3.258,4.298c0.66,1.003 1.577,2.23 2.038,2.726c0.461,0.496 2.024,2.635 3.474,4.754c2.921,4.267 22.467,30.315 23.224,30.948c0.263,0.22 1.375,1.744 2.471,3.387c1.096,1.644 2.378,3.137 2.848,3.32c1.369,0.531 42.877,-55.032 42.278,-56.594c-0.277,-0.722 -0.826,-1.313 -1.219,-1.313c-0.393,0 -0.714,-0.522 -0.714,-1.16c0,-0.638 -0.468,-1.448 -1.04,-1.8c-0.572,-0.352 -1.905,-1.9 -2.962,-3.44c-1.056,-1.54 -2.139,-2.98 -2.405,-3.2c-0.267,-0.22 -2.797,-3.46 -5.623,-7.2c-5.329,-7.054 -6.192,-8.158 -9.62,-12.314c-1.128,-1.367 -3.819,-4.826 -5.98,-7.686c-4.093,-5.416 -5.018,-6.606 -6.396,-8.228c-0.455,-0.534 -1.697,-2.232 -2.762,-3.772c-1.064,-1.54 -2.312,-3.064 -2.773,-3.388c-0.462,-0.323 -19.681,-0.593 -42.71,-0.6l-41.871,-0.012l2.075,2.6m-15.533,10.282c-3.3,3.943 -7.211,8.418 -8.691,9.944l-2.691,2.774l14.491,0c7.97,0 14.491,-0.195 14.491,-0.433c0,-1.423 -9.928,-19.557 -10.682,-19.511c-0.505,0.031 -3.618,3.282 -6.918,7.226" id="path0"/>
   <path fill-rule="evenodd" fill="#1b5c2e" d="m170.631,1.935c-4.163,0.395 -7.763,1.018 -8,1.385c-0.237,0.367 -2.861,0.924 -5.831,1.237c-2.97,0.314 -5.4,0.86 -5.4,1.214c0,0.355 -1.974,0.891 -4.387,1.193c-2.413,0.301 -4.582,0.862 -4.819,1.246c-0.237,0.384 -2.043,0.939 -4.013,1.235c-1.969,0.295 -3.581,0.824 -3.581,1.176c0,0.351 -1.44,0.882 -3.2,1.179c-1.76,0.297 -3.2,0.829 -3.2,1.181c0,0.353 -1.26,0.877 -2.8,1.166c-1.54,0.289 -2.8,0.869 -2.8,1.289c0,0.42 -0.721,0.764 -1.603,0.764c-0.881,0 -2.946,0.72 -4.588,1.6c-1.642,0.88 -3.441,1.6 -3.997,1.6c-0.557,0 -1.012,0.331 -1.012,0.736c0,0.405 -1.08,0.974 -2.4,1.264c-1.32,0.29 -2.406,0.769 -2.412,1.064c-0.007,0.295 -1.807,1.417 -4,2.493c-2.194,1.077 -3.988,2.247 -3.988,2.6c0,0.354 -0.54,0.643 -1.2,0.643c-0.66,0 -1.2,0.353 -1.2,0.785c0,0.431 -0.9,1.01 -2,1.286c-1.1,0.277 -2,0.823 -2,1.216c0,0.392 -0.551,0.713 -1.225,0.713c-0.674,0 -1.432,0.54 -1.686,1.2c-0.253,0.66 -0.936,1.2 -1.517,1.2c-0.582,0 -1.533,0.45 -2.115,1.001c-0.581,0.551 -2.405,1.901 -4.052,3c-1.647,1.099 -2.997,2.269 -3,2.599c-0.003,0.33 -0.527,0.6 -1.165,0.6c-0.638,0 -1.448,0.477 -1.8,1.059c-0.352,0.583 -1.875,1.933 -3.385,3c-3.564,2.52 -23.876,22.832 -26.396,26.396c-1.067,1.51 -2.417,3.033 -3,3.385c-0.582,0.352 -1.059,1.162 -1.059,1.8c0,0.638 -0.27,1.162 -0.6,1.165c-0.33,0.003 -1.5,1.353 -2.599,3c-1.099,1.647 -2.449,3.471 -3,4.052c-0.551,0.582 -1.001,1.533 -1.001,2.115c0,0.581 -0.54,1.264 -1.2,1.517c-0.66,0.254 -1.2,1.012 -1.2,1.686c0,0.674 -0.321,1.225 -0.713,1.225c-0.393,0 -0.939,0.9 -1.216,2c-0.276,1.1 -0.855,2 -1.286,2c-0.432,0 -0.785,0.54 -0.785,1.2c0,0.66 -0.289,1.2 -0.643,1.2c-0.353,0 -1.523,1.794 -2.6,3.988c-1.076,2.193 -2.198,3.993 -2.493,4c-0.295,0.006 -0.774,1.092 -1.064,2.412c-0.29,1.32 -0.859,2.4 -1.264,2.4c-0.405,0 -0.736,0.455 -0.736,1.012c0,0.556 -0.72,2.355 -1.6,3.997c-0.88,1.642 -1.6,3.707 -1.6,4.588c0,0.882 -0.344,1.603 -0.764,1.603c-0.42,0 -1,1.26 -1.289,2.8c-0.289,1.54 -0.813,2.8 -1.166,2.8c-0.352,0 -0.884,1.44 -1.181,3.2c-0.297,1.76 -0.828,3.2 -1.179,3.2c-0.352,0 -0.881,1.612 -1.176,3.581c-0.296,1.97 -0.851,3.776 -1.235,4.013c-0.384,0.237 -0.945,2.406 -1.246,4.819c-0.302,2.413 -0.838,4.387 -1.193,4.387c-0.354,0 -0.9,2.43 -1.214,5.4c-0.313,2.97 -0.853,5.584 -1.2,5.808c-3.026,1.959 -3.026,74.825 0,76.784c0.347,0.224 0.887,2.838 1.2,5.808c0.314,2.97 0.86,5.4 1.214,5.4c0.355,0 0.891,1.974 1.193,4.387c0.301,2.413 0.862,4.582 1.246,4.819c0.384,0.237 0.939,2.043 1.235,4.013c0.295,1.969 0.824,3.581 1.176,3.581c0.351,0 0.882,1.44 1.179,3.2c0.297,1.76 0.829,3.2 1.181,3.2c0.353,0 0.877,1.26 1.166,2.8c0.289,1.54 0.869,2.8 1.289,2.8c0.42,0 0.764,0.721 0.764,1.603c0,0.881 0.72,2.946 1.6,4.588c0.88,1.642 1.6,3.441 1.6,3.997c0,0.557 0.331,1.012 0.736,1.012c0.405,0 0.974,1.08 1.264,2.4c0.29,1.32 0.769,2.406 1.064,2.412c0.295,0.007 1.417,1.807 2.493,4c1.077,2.194 2.247,3.988 2.6,3.988c0.354,0 0.643,0.54 0.643,1.2c0,0.66 0.353,1.2 0.785,1.2c0.431,0 1.01,0.9 1.286,2c0.277,1.1 0.823,2 1.216,2c0.392,0 0.713,0.551 0.713,1.225c0,0.674 0.54,1.432 1.2,1.686c0.66,0.253 1.2,0.936 1.2,1.517c0,0.582 0.45,1.533 1.001,2.115c0.551,0.581 1.901,2.405 3,4.052c1.099,1.647 2.269,2.997 2.599,3c0.33,0.003 0.6,0.527 0.6,1.165c0,0.638 0.477,1.448 1.059,1.8c0.583,0.352 1.933,1.875 3,3.385c2.52,3.564 22.832,23.876 26.396,26.396c1.51,1.067 3.033,2.417 3.385,3c0.352,0.582 1.162,1.059 1.8,1.059c0.638,0 1.162,0.27 1.165,0.6c0.003,0.33 1.353,1.5 3,2.599c1.647,1.099 3.471,2.449 4.052,3c0.582,0.551 1.533,1.001 2.115,1.001c0.581,0 1.264,0.54 1.517,1.2c0.254,0.66 1.012,1.2 1.686,1.2c0.674,0 1.225,0.36 1.225,0.8c0,0.44 0.54,0.8 1.2,0.8c0.66,0 1.2,0.353 1.2,0.785c0,0.431 0.9,1.01 2,1.286c1.1,0.277 2,0.753 2,1.058c0,0.306 1.794,1.437 3.988,2.514c2.193,1.076 3.993,2.198 4,2.493c0.006,0.295 1.092,0.774 2.412,1.064c1.32,0.29 2.4,0.859 2.4,1.264c0,0.405 0.455,0.736 1.012,0.736c0.556,0 2.355,0.72 3.997,1.6c1.642,0.88 3.707,1.6 4.588,1.6c0.882,0 1.603,0.344 1.603,0.764c0,0.42 1.26,1 2.8,1.289c1.54,0.289 2.8,0.813 2.8,1.166c0,0.352 1.44,0.884 3.2,1.181c1.76,0.297 3.2,0.828 3.2,1.179c0,0.352 1.612,0.881 3.581,1.176c1.97,0.296 3.776,0.851 4.013,1.235c0.237,0.384 2.406,0.945 4.819,1.246c2.413,0.302 4.387,0.838 4.387,1.193c0,0.354 2.43,0.9 5.4,1.214c2.97,0.313 5.584,0.853 5.808,1.2c1.959,3.026 74.825,3.026 76.784,0c0.224,-0.347 2.838,-0.887 5.808,-1.2c2.97,-0.314 5.4,-0.86 5.4,-1.214c0,-0.355 1.974,-0.891 4.387,-1.193c2.413,-0.301 4.582,-0.862 4.819,-1.246c0.237,-0.384 2.043,-0.939 4.013,-1.235c1.969,-0.295 3.581,-0.824 3.581,-1.176c0,-0.351 1.44,-0.882 3.2,-1.179c1.76,-0.297 3.2,-0.829 3.2,-1.181c0,-0.353 1.26,-0.877 2.8,-1.166c1.54,-0.289 2.8,-0.869 2.8,-1.289c0,-0.42 0.721,-0.764 1.603,-0.764c0.881,0 2.946,-0.72 4.588,-1.6c1.642,-0.88 3.441,-1.6 3.997,-1.6c0.557,0 1.012,-0.331 1.012,-0.736c0,-0.405 1.08,-0.974 2.4,-1.264c1.32,-0.29 2.406,-0.769 2.412,-1.064c0.007,-0.295 1.807,-1.417 4,-2.493c2.194,-1.077 3.988,-2.208 3.988,-2.514c0,-0.305 0.9,-0.781 2,-1.058c1.1,-0.276 2,-0.855 2,-1.286c0,-0.432 0.54,-0.785 1.2,-0.785c0.66,0 1.2,-0.36 1.2,-0.8c0,-0.44 0.551,-0.8 1.225,-0.8c0.674,0 1.432,-0.54 1.686,-1.2c0.253,-0.66 0.936,-1.2 1.517,-1.2c0.582,0 1.533,-0.45 2.115,-1.001c0.581,-0.551 2.405,-1.901 4.052,-3c1.647,-1.099 2.997,-2.269 3,-2.599c0.003,-0.33 0.527,-0.6 1.165,-0.6c0.638,0 1.448,-0.477 1.8,-1.059c0.352,-0.583 1.875,-1.933 3.385,-3c3.564,-2.52 23.876,-22.832 26.396,-26.396c1.067,-1.51 2.417,-3.033 3,-3.385c0.582,-0.352 1.059,-1.162 1.059,-1.8c0,-0.638 0.27,-1.162 0.6,-1.165c0.33,-0.003 1.5,-1.353 2.599,-3c1.099,-1.647 2.449,-3.471 3,-4.052c0.551,-0.582 1.001,-1.533 1.001,-2.115c0,-0.581 0.54,-1.264 1.2,-1.517c0.66,-0.254 1.2,-1.012 1.2,-1.686c0,-0.674 0.36,-1.225 0.8,-1.225c0.44,0 0.8,-0.54 0.8,-1.2c0,-0.66 0.353,-1.2 0.785,-1.2c0.431,0 1.01,-0.9 1.286,-2c0.277,-1.1 0.753,-2 1.058,-2c0.306,0 1.437,-1.794 2.514,-3.988c1.076,-2.193 2.198,-3.993 2.493,-4c0.295,-0.006 0.774,-1.092 1.064,-2.412c0.29,-1.32 0.859,-2.4 1.264,-2.4c0.405,0 0.736,-0.455 0.736,-1.012c0,-0.556 0.72,-2.355 1.6,-3.997c0.88,-1.642 1.6,-3.707 1.6,-4.588c0,-0.882 0.344,-1.603 0.764,-1.603c0.42,0 1,-1.26 1.289,-2.8c0.289,-1.54 0.813,-2.8 1.166,-2.8c0.352,0 0.884,-1.44 1.181,-3.2c0.297,-1.76 0.828,-3.2 1.179,-3.2c0.352,0 0.881,-1.612 1.176,-3.581c0.296,-1.97 0.851,-3.776 1.235,-4.013c0.384,-0.237 0.945,-2.406 1.246,-4.819c0.302,-2.413 0.838,-4.387 1.193,-4.387c0.354,0 0.9,-2.43 1.214,-5.4c0.313,-2.97 0.853,-5.584 1.2,-5.808c3.026,-1.959 3.026,-74.825 0,-76.784c-0.347,-0.224 -0.887,-2.838 -1.2,-5.808c-0.314,-2.97 -0.86,-5.4 -1.214,-5.4c-0.355,0 -0.891,-1.974 -1.193,-4.387c-0.301,-2.413 -0.862,-4.582 -1.246,-4.819c-0.384,-0.237 -0.939,-2.043 -1.235,-4.013c-0.295,-1.969 -0.824,-3.581 -1.176,-3.581c-0.351,0 -0.882,-1.44 -1.179,-3.2c-0.297,-1.76 -0.829,-3.2 -1.181,-3.2c-0.353,0 -0.877,-1.26 -1.166,-2.8c-0.289,-1.54 -0.869,-2.8 -1.289,-2.8c-0.42,0 -0.764,-0.721 -0.764,-1.603c0,-0.881 -0.72,-2.946 -1.6,-4.588c-0.88,-1.642 -1.6,-3.441 -1.6,-3.997c0,-0.557 -0.36,-1.012 -0.8,-1.012c-0.44,0 -0.8,0.51 -0.8,1.133c0,0.624 -0.27,1.254 -0.6,1.4c-0.33,0.147 -2.565,3.147 -4.968,6.667c-2.402,3.52 -4.742,6.838 -5.2,7.372c-2.357,2.754 -2.832,3.403 -2.832,3.868c0,0.279 -0.63,1.333 -1.4,2.341c-0.77,1.009 -1.854,2.505 -2.408,3.326c-0.555,0.821 -2.801,4.013 -4.992,7.093c-2.191,3.08 -4.354,6.14 -4.807,6.8c-3.109,4.53 -10.645,15.046 -11.616,16.209c-0.647,0.775 -1.177,1.578 -1.177,1.783c0,0.361 -2.873,4.452 -13.21,18.808c-2.693,3.74 -7.295,10.22 -10.226,14.4c-2.93,4.18 -5.606,7.96 -5.946,8.4c-0.34,0.44 -1.518,2.148 -2.618,3.795c-1.1,1.647 -2.27,2.997 -2.6,3c-0.33,0.003 -0.6,0.398 -0.6,0.879c0,0.48 -0.63,1.699 -1.4,2.707c-0.77,1.009 -1.854,2.505 -2.408,3.326c-0.555,0.821 -2.801,4.013 -4.992,7.093c-2.191,3.08 -4.437,6.274 -4.992,7.098c-0.554,0.824 -1.368,1.919 -1.808,2.434c-0.44,0.514 -1.16,1.511 -1.6,2.214c-1.42,2.269 -19.678,27.972 -21.774,30.654c-0.345,0.44 -2.594,3.68 -4.999,7.2c-4.411,6.457 -5.207,7.542 -7.027,9.571c-0.55,0.613 -1,1.354 -1,1.646c0,0.292 -0.63,1.356 -1.4,2.364c-0.77,1.009 -1.854,2.505 -2.408,3.326c-1.57,2.324 -8.825,12.538 -9.968,14.033c-0.563,0.737 -1.478,1.997 -2.032,2.8c-3.379,4.892 -9.044,12.806 -9.755,13.626c-0.46,0.532 -0.837,1.173 -0.837,1.426c0,0.252 -1.919,3.057 -4.265,6.233c-2.346,3.176 -5.905,8.115 -7.909,10.975c-4.742,6.766 -6.89,9.016 -10.177,10.656c-2.927,1.46 -9.649,1.839 -9.649,0.544c0,-0.44 -0.72,-0.8 -1.6,-0.8c-1.951,0 -7.123,-5.14 -10.551,-10.488c-0.736,-1.148 -1.823,-2.588 -2.415,-3.2c-0.592,-0.611 -6.078,-7.769 -12.191,-15.905c-6.113,-8.136 -11.503,-15.202 -11.979,-15.702c-0.475,-0.5 -1.404,-1.715 -2.064,-2.7c-1.595,-2.38 -3.958,-5.523 -7.015,-9.33c-0.762,-0.949 -1.925,-2.513 -2.585,-3.475c-0.66,-0.962 -1.74,-2.402 -2.4,-3.2c-0.66,-0.798 -1.74,-2.238 -2.4,-3.2c-0.66,-0.962 -1.74,-2.402 -2.4,-3.2c-0.66,-0.798 -1.74,-2.241 -2.4,-3.207c-0.66,-0.966 -2.184,-2.89 -3.387,-4.275c-1.203,-1.385 -2.193,-2.762 -2.2,-3.061c-0.007,-0.298 -0.479,-1.018 -1.049,-1.6c-2.285,-2.331 -13.364,-17.435 -13.364,-18.218c0,-0.462 -0.27,-0.844 -0.6,-0.851c-0.33,-0.007 -7.98,-9.888 -17,-21.959l-16.4,-21.946l-22.8,-0.242c-27.212,-0.288 -26.559,0.283 -14.4,-12.598c1.1,-1.165 5.022,-5.611 8.715,-9.881l6.716,-7.762l43.801,0l43.801,0l2.284,2.85c1.255,1.567 2.656,3.277 3.111,3.8c0.456,0.522 4.231,5.45 8.39,10.95c4.158,5.5 7.952,10.36 8.43,10.8c0.478,0.44 4.252,5.3 8.387,10.8c4.135,5.5 7.805,10.36 8.156,10.8c0.351,0.44 1.262,1.576 2.024,2.525c0.762,0.949 1.925,2.516 2.585,3.482c0.66,0.966 2.184,2.89 3.387,4.275c1.203,1.385 2.193,2.735 2.2,3.001c0.007,0.266 0.877,1.416 1.934,2.556l1.921,2.073l1.288,-1.756c0.709,-0.966 3.135,-4.456 5.39,-7.756c6.433,-9.41 9.016,-13.103 9.88,-14.123c0.44,-0.52 2.42,-3.35 4.4,-6.291c1.98,-2.94 5.595,-8.099 8.033,-11.466c2.439,-3.366 6.756,-9.54 9.594,-13.72c2.839,-4.18 5.452,-7.96 5.807,-8.4c0.355,-0.44 2.955,-4.04 5.778,-8c2.823,-3.96 5.505,-7.635 5.96,-8.166c0.456,-0.532 0.828,-1.176 0.828,-1.433c0,-0.47 2.923,-4.776 4.4,-6.481c0.44,-0.508 1.34,-1.734 2,-2.724c1.506,-2.258 8.502,-12.121 9.361,-13.196c0.351,-0.44 2.588,-3.68 4.97,-7.2c2.382,-3.52 6.269,-9.1 8.637,-12.4c3.622,-5.046 11.623,-16.425 14.625,-20.8c0.453,-0.66 2.616,-3.72 4.807,-6.8c2.191,-3.08 4.437,-6.274 4.992,-7.098c0.554,-0.824 1.458,-1.968 2.008,-2.543c0.55,-0.575 1,-1.375 1,-1.778c0,-0.403 0.72,-1.385 1.6,-2.181c0.88,-0.796 1.6,-1.767 1.6,-2.158c0,-0.39 0.377,-1.144 0.837,-1.676c0.734,-0.847 6.928,-9.508 9.755,-13.64c4.554,-6.657 8.211,-11.537 9.476,-12.643c1.671,-1.462 -1.087,-5.01 -7.325,-9.424c-1.509,-1.067 -3.031,-2.417 -3.383,-3c-0.352,-0.582 -1.162,-1.059 -1.8,-1.059c-0.638,0 -1.162,-0.27 -1.165,-0.6c-0.003,-0.33 -1.353,-1.5 -3,-2.599c-1.647,-1.099 -3.471,-2.449 -4.052,-3c-0.582,-0.551 -1.533,-1.001 -2.115,-1.001c-0.581,0 -1.264,-0.54 -1.517,-1.2c-0.254,-0.66 -1.012,-1.2 -1.686,-1.2c-0.674,0 -1.225,-0.321 -1.225,-0.713c0,-0.393 -0.9,-0.939 -2,-1.216c-1.1,-0.276 -2,-0.855 -2,-1.286c0,-0.432 -0.54,-0.785 -1.2,-0.785c-0.66,0 -1.2,-0.289 -1.2,-0.643c0,-0.353 -1.794,-1.523 -3.988,-2.6c-2.193,-1.076 -3.993,-2.198 -4,-2.493c-0.006,-0.295 -1.092,-0.774 -2.412,-1.064c-1.32,-0.29 -2.4,-0.859 -2.4,-1.264c0,-0.405 -0.455,-0.736 -1.012,-0.736c-0.556,0 -2.355,-0.72 -3.997,-1.6c-1.642,-0.88 -3.707,-1.6 -4.588,-1.6c-0.882,0 -1.603,-0.344 -1.603,-0.764c0,-0.42 -1.26,-1 -2.8,-1.289c-1.54,-0.289 -2.8,-0.813 -2.8,-1.166c0,-0.352 -1.44,-0.884 -3.2,-1.181c-1.76,-0.297 -3.2,-0.828 -3.2,-1.179c0,-0.352 -1.612,-0.881 -3.581,-1.176c-1.97,-0.296 -3.776,-0.851 -4.013,-1.235c-0.237,-0.384 -2.406,-0.945 -4.819,-1.246c-2.413,-0.302 -4.387,-0.838 -4.387,-1.193c0,-0.354 -2.43,-0.9 -5.4,-1.214c-2.97,-0.313 -5.584,-0.853 -5.808,-1.2c-1.349,-2.084 -50.954,-3.11 -68.761,-1.422m169.569,53.088c0,0.737 11.178,11.873 11.529,11.485c0.153,-0.169 -2.379,-2.945 -5.626,-6.168c-3.247,-3.223 -5.903,-5.616 -5.903,-5.317m14.903,16.756c0.231,0.603 0.915,1.287 1.518,1.518c0.692,0.266 0.942,0.016 0.676,-0.676c-0.231,-0.603 -0.915,-1.287 -1.518,-1.518c-0.692,-0.266 -0.942,-0.016 -0.676,0.676m4.8,6.4c0.231,0.603 0.915,1.287 1.518,1.518c0.692,0.266 0.942,0.016 0.676,-0.676c-0.231,-0.603 -0.915,-1.287 -1.518,-1.518c-0.692,-0.266 -0.942,-0.016 -0.676,0.676" id="path1"/>
   <path fill-rule="evenodd" fill="#2e6a40" d="m280.57,134.8c-1.233,1.87 -1.731,2.978 -1.106,2.462c1.201,-0.993 4.265,-5.862 3.688,-5.862c-0.187,0 -1.348,1.53 -2.582,3.4m-40.37,57.4c-0.94,1.32 -1.529,2.4 -1.309,2.4c0.22,0 1.169,-1.08 2.109,-2.4c0.94,-1.32 1.529,-2.4 1.309,-2.4c-0.22,0 -1.169,1.08 -2.109,2.4m-204.531,17.254c-0.981,2.555 1.042,2.771 23.784,2.546l22.747,-0.226l-23.093,-0.187c-22.655,-0.183 -23.086,-0.217 -22.675,-1.787c0.495,-1.892 -0.071,-2.149 -0.763,-0.346m191.117,1.746c-2.071,2.991 -2.745,4.2 -2.34,4.2c0.188,0 1.294,-1.44 2.459,-3.2c2.367,-3.577 2.264,-4.442 -0.119,-1m52.184,45.2c-1.233,1.87 -1.731,2.978 -1.106,2.462c1.201,-0.993 4.265,-5.862 3.688,-5.862c-0.187,0 -1.348,1.53 -2.582,3.4" id="path2"/>
   <path fill-rule="evenodd" fill="#538461" d="m57.757,184.8l-2.757,3l2.831,-2.593l2.831,-2.593l43.569,-0.214l43.569,-0.214l-43.643,-0.193l-43.643,-0.193l-2.757,3m243.542,39.2c-2.365,3.249 -3.094,4.903 -1.146,2.6c1.804,-2.131 3.486,-4.8 3.026,-4.8c-0.153,0 -0.999,0.99 -1.88,2.2m-155.475,73.539c0.013,0.363 1.363,2.117 3,3.896c3.126,3.398 2.755,2.592 -0.873,-1.896c-1.183,-1.464 -2.14,-2.364 -2.127,-2m62.188,57.483c-1.644,1.528 -2.704,2.778 -2.357,2.778c0.347,0 1.852,-1.26 3.345,-2.8c3.483,-3.593 2.886,-3.58 -0.988,0.022" id="path3"/>
   <path fill-rule="evenodd" fill="#90b09a" d="m36.199,210.8c0.001,0.33 9.631,0.525 21.401,0.434c21.534,-0.167 19.078,-0.45 -7.201,-0.829c-7.811,-0.113 -14.201,0.065 -14.2,0.395" id="path4"/>
   <path fill-rule="evenodd" fill="#a2bca9" d="m81.944,183.199c11.738,0.125 31.178,0.125 43.2,0.001c12.021,-0.125 2.416,-0.227 -21.344,-0.227c-23.76,0 -33.595,0.102 -21.856,0.226m-4.944,26.601l-2.8,0.589l3.447,0.106c2.118,0.064 3.257,-0.204 2.953,-0.695c-0.272,-0.44 -0.563,-0.753 -0.647,-0.695c-0.084,0.058 -1.413,0.371 -2.953,0.695" id="path5"/>
   <path fill-rule="evenodd" fill="#e6ede8" d="m61.8,184c-0.001,0.545 30.846,0.536 70,-0.021c8.36,-0.118 -3.97,-0.297 -27.4,-0.397c-23.43,-0.1 -42.6,0.088 -42.6,0.418m-3.42,2.287c-0.756,0.756 10.865,23.513 12.007,23.513c1.443,0 1.574,0.339 -4.774,-12.393c-5.613,-11.256 -6.198,-12.156 -7.233,-11.12m130.528,59.672c-1.514,1.892 -5.438,7.041 -8.72,11.441c-3.282,4.4 -6.418,8.54 -6.969,9.2c-0.55,0.66 -6.172,8.123 -12.492,16.584c-6.32,8.462 -11.773,15.122 -12.118,14.8c-0.344,-0.321 -0.204,0.226 0.311,1.216c0.515,0.99 1.374,1.791 1.908,1.78c2.151,-0.044 43.196,-56.099 41.973,-57.322c-0.987,-0.987 -1.511,-0.678 -3.893,2.301" id="path6"/>
   <path fill-rule="evenodd" fill="#cacbcd" d="m67.492,193.422c2.416,6.451 8.539,16.371 10.108,16.374c2.173,0.005 2.364,-1.821 0.4,-3.822c-0.77,-0.785 -2.469,-2.855 -3.776,-4.6c-4.15,-5.543 -7.162,-9.102 -6.732,-7.952m2.108,16.943c0.99,0.19 2.61,0.19 3.6,0c0.99,-0.191 0.18,-0.347 -1.8,-0.347c-1.98,0 -2.79,0.156 -1.8,0.347m123.641,44.687c-2.112,2.959 -4.208,5.778 -4.656,6.264c-0.448,0.486 -8.34,10.886 -17.537,23.11l-16.722,22.225l1.586,2.124c2.491,3.337 2.675,3.189 10.441,-8.401c9.92,-14.804 22.392,-33.188 23.194,-34.188c0.359,-0.447 2.076,-2.967 3.815,-5.6c1.74,-2.632 3.805,-5.736 4.591,-6.896c1.231,-1.82 1.27,-2.241 0.279,-3.064c-0.946,-0.785 -1.828,-0.002 -4.991,4.426" id="path7"/>
   <path fill-rule="evenodd" fill="#d9dadb" d="m344.167,61.2c3.315,3.532 4.033,4.167 4.033,3.567c0,-0.129 -1.71,-1.839 -3.8,-3.8l-3.8,-3.567l3.567,3.8m-285.254,124.271c-1.321,1.281 -1.813,1.879 -1.094,1.329c0.719,-0.55 1.468,-1 1.665,-1c0.197,0 3.039,5.4 6.316,12c5.068,10.208 6.229,12 7.779,12c2.415,0 2.404,-0.044 -2.194,-8.707c-3.617,-6.812 -5.163,-10.354 -3.185,-7.293c0.537,0.831 0.779,0.886 0.788,0.18c0.006,-0.561 -0.839,-1.343 -1.879,-1.739c-1.04,-0.395 -2.121,-1.376 -2.402,-2.18c-0.464,-1.326 -0.401,-1.319 0.683,0.081c0.656,0.847 1.36,1.374 1.564,1.17c0.204,-0.203 -0.836,-1.687 -2.31,-3.297c-1.475,-1.609 -2.827,-3.364 -3.006,-3.9c-0.204,-0.612 -1.213,-0.11 -2.725,1.356m-13.713,24.925c4.29,0.144 11.31,0.144 15.6,0c4.29,-0.143 0.78,-0.261 -7.8,-0.261c-8.58,0 -12.09,0.118 -7.8,0.261m142.528,42.696c-3.484,4.569 -12.993,17.211 -21.132,28.093c-8.138,10.881 -15.336,19.797 -15.996,19.812c-0.732,0.017 -0.877,0.257 -0.372,0.615c0.455,0.324 1.579,1.568 2.498,2.767l1.671,2.178l16.701,-22.178c9.185,-12.199 17.137,-22.719 17.671,-23.379c4.924,-6.091 8.613,-11.792 8.046,-12.433c-0.374,-0.422 -1.146,-1.446 -1.716,-2.275c-0.95,-1.383 -1.561,-0.819 -7.371,6.8m10.258,0.508c-2.071,2.991 -2.745,4.2 -2.34,4.2c0.188,0 1.294,-1.44 2.459,-3.2c2.367,-3.577 2.264,-4.442 -0.119,-1" id="path8"/>
   <path fill-rule="evenodd" fill="#f1f1f2" d="m341.8,59.65c0,0.138 1.17,1.308 2.6,2.6l2.6,2.35l-2.35,-2.6c-2.19,-2.424 -2.85,-2.968 -2.85,-2.35m-285.432,128.98c-0.567,0.644 -0.689,1.17 -0.271,1.17c0.419,0 3.042,4.5 5.83,10c2.788,5.5 5.52,10 6.071,10c1.426,0 1.531,0.276 -4.384,-11.592c-5.712,-11.462 -5.653,-11.383 -7.246,-9.578m111.858,78.57c-11.544,15.29 -21.327,27.705 -21.741,27.589c-1.133,-0.318 0.727,2.815 1.906,3.21c0.581,0.195 5.847,-6.13 12.428,-14.93c6.281,-8.398 12.272,-16.349 13.314,-17.669c14.753,-18.696 19.158,-26 15.681,-26c-0.33,0 -10.044,12.51 -21.588,27.8m-7.866,42.76c-0.528,0.528 -0.918,1.698 -0.867,2.6c0.091,1.607 0.101,1.608 0.486,0.04c0.216,-0.88 0.759,-2.05 1.205,-2.6c1.036,-1.276 0.441,-1.305 -0.824,-0.04" id="path9"/>
  </g>
 </g>
</svg>