<?xml version="1.0" encoding="UTF-8"?>
<svg width="1693px" height="1710px" viewBox="0 0 1693 1710" version="1.1" xmlns="http://www.w3.org/2000/svg" xmlns:xlink="http://www.w3.org/1999/xlink">
    <!-- Generator: Sketch 49.2 (51160) - http://www.bohemiancoding.com/sketch -->
    <title>Group Copy 4</title>
    <desc>Created with Sketch.</desc>
    <defs></defs>
    <g id="Page-1" stroke="none" stroke-width="1" fill="none" fill-rule="evenodd">
        <g id="Group-Copy-4">
            <path d="M1440.07906,245.481948 C1435.16489,240.761526 1430.2028,236.132304 1425.19278,231.594282 L835.002208,1057.36439 L609.490074,766.770801 L242.412488,766.770801 L139.249095,885.429848 L331.180988,885.429848 L789.418383,1483.56831 C804.709576,1498.09799 819.904184,1505.36283 835.002208,1505.36283 C850.100232,1505.36283 864.495124,1498.09799 878.186884,1483.56831 L1602.72978,471.333989 C1598.54464,462.652449 1594.21789,454.068248 1589.74954,445.581388 C1655.47467,567.089551 1692.83214,706.486052 1692.83214,854.693182 C1692.83214,1326.72719 1313.87875,1709.38636 846.416068,1709.38636 C378.953382,1709.38636 0,1326.72719 0,854.693182 C0,382.659172 378.953382,0 846.416068,0 C1077.69352,0 1287.30583,93.6666151 1440.07901,245.481894 Z" id="Combined-Shape" fill="#048657"></path>
            <path d="M139.249095,885.429848 L242.412488,766.770801 L609.490074,766.770801 L835.002208,1057.36439 L1425.19278,231.594282 C1460.33979,263.430066 1493.12816,299.754264 1523.55787,340.566876 C1553.98759,381.379488 1580.37823,424.968526 1602.72978,471.333989 L878.186884,1483.56831 C864.495124,1498.09799 850.100232,1505.36283 835.002208,1505.36283 C819.904184,1505.36283 804.709576,1498.09799 789.418383,1483.56831 L331.180988,885.429848 L139.249095,885.429848 Z" id="Path-2-Copy-6" fill="#FFFFFF"></path>
        </g>
    </g>
</svg>